<svg height="512pt" viewBox="0 -53 512 511" width="512pt" xmlns="http://www.w3.org/2000/svg"><path d="m256 406.191406h256v-278.121094l-276.015625-20.015624zm0 0" fill="#00429d"/><path d="m0 128.070312v278.121094h256v-298.136718zm0 0" fill="#2682ff"/><path d="m256 .5-20.015625 62.804688 20.015625 64.765624h256v-127.570312zm0 0" fill="#b4d2d7"/><path d="m0 .5h256v127.570312h-256zm0 0" fill="#e1ebf0"/><path d="m47.839844 49.285156h31.890625v30h-31.890625zm0 0" fill="#ff4c04"/><path d="m111.625 49.285156h31.894531v30h-31.894531zm0 0" fill="#ff9100"/><path d="m175.410156 49.285156h31.894532v30h-31.894532zm0 0" fill="#009959"/><g fill="#efe2dd"><path d="m289.402344 316.773438h144.375v30h-144.375zm0 0"/><path d="m289.402344 252.128906h144.375v30h-144.375zm0 0"/><path d="m289.402344 187.488281h144.375v30h-144.375zm0 0"/></g><path d="m186.019531 260.121094c10.886719-8.535156 17.90625-21.796875 17.90625-36.671875 0-25.691407-20.902343-46.59375-46.59375-46.59375-25.691406 0-46.59375 20.902343-46.59375 46.59375 0 14.875 7.019531 28.136719 17.910157 36.671875-22.230469 10.714844-37.609376 33.476562-37.609376 59.761718v26.890626h132.585938v-26.890626c0-26.285156-15.375-49.046874-37.605469-59.761718zm0 0" fill="#fff5f5"/></svg>